<svg width="255" height="41" viewBox="0 0 255 41" fill="none" xmlns="http://www.w3.org/2000/svg">
    <path d="M40.2029 36.8502C38.2709 38.6755 35.25 38.6755 33.3179 36.8502L14.0877 18.6823C10.7912 15.568 12.9953 10.0257 17.5302 10.0257L55.9907 10.0257C60.5256 10.0257 62.7296 15.568 59.4332 18.6823L40.2029 36.8502Z" fill="#E49D2E"/>
    <path d="M71.3388 32.4033L80.6025 11.1992H84.0312L93.2949 32.4033H89.3849L87.2495 27.3203H77.294L75.1285 32.4033H71.3388ZM78.6475 24.042H85.896L82.2567 15.6205L78.6475 24.042ZM94.8601 32.5838C94.2786 32.5838 93.5668 32.5136 92.7246 32.3732L92.9953 29.3956C93.3161 29.4758 93.667 29.5159 94.048 29.5159C94.4691 29.5159 94.81 29.4558 95.0706 29.3355C95.3513 29.2152 95.6321 28.9144 95.9128 28.4332C96.2135 27.9319 96.4441 27.2301 96.6045 26.3278C96.7649 25.4255 96.8953 24.1623 96.9955 22.5381C97.0958 20.8939 97.1459 18.8888 97.1459 16.5228H109.147V32.4033H105.507V19.6507H100.545C100.545 21.9165 100.454 23.8415 100.274 25.4255C100.093 27.0095 99.8528 28.2627 99.5521 29.1851C99.2713 30.1075 98.8703 30.8293 98.349 31.3506C97.8477 31.8519 97.3364 32.1828 96.8151 32.3432C96.2937 32.5036 95.6421 32.5838 94.8601 32.5838ZM119.494 32.7642C117.168 32.7642 115.223 31.9923 113.66 30.4483C112.116 28.9044 111.344 26.9093 111.344 24.463C111.344 22.1571 112.075 20.2022 113.539 18.5981C115.003 16.994 116.858 16.1919 119.103 16.1919C121.51 16.1919 123.374 17.014 124.698 18.6582C126.041 20.2824 126.713 22.3075 126.713 24.7337C126.713 25.1749 126.693 25.5157 126.653 25.7563H114.983C115.183 27.0196 115.695 28.0121 116.517 28.7339C117.339 29.4357 118.351 29.7866 119.555 29.7866C121.119 29.7866 122.552 29.155 123.856 27.8918L125.991 29.7866C124.347 31.7717 122.181 32.7642 119.494 32.7642ZM114.953 23.3502H123.104C122.983 22.1271 122.572 21.1245 121.87 20.3425C121.169 19.5605 120.236 19.1695 119.073 19.1695C117.971 19.1695 117.048 19.5605 116.306 20.3425C115.564 21.1045 115.113 22.107 114.953 23.3502ZM128.864 32.4033V16.5228H132.473V24.1322L139.391 16.5228H143.662L137.496 23.1998L144.173 32.4033H139.872L135.06 25.8466L132.473 28.5836V32.4033H128.864ZM152.527 32.7642C150.181 32.7642 148.226 31.9722 146.662 30.3882C145.098 28.7841 144.316 26.8391 144.316 24.5533V24.4931C144.316 22.2073 145.098 20.2523 146.662 18.6281C148.247 17.004 150.212 16.1919 152.558 16.1919C155.124 16.1919 157.239 17.1042 158.904 18.9289L156.648 21.3651C155.385 20.0417 154.011 19.3801 152.527 19.3801C151.224 19.3801 150.131 19.8713 149.249 20.8538C148.387 21.8363 147.956 23.0294 147.956 24.433V24.4931C147.956 25.9368 148.397 27.1499 149.279 28.1324C150.181 29.1149 151.324 29.6062 152.708 29.6062C154.172 29.6062 155.545 28.9445 156.828 27.6211L159.024 29.7866C158.162 30.7491 157.219 31.491 156.197 32.0123C155.194 32.5136 153.971 32.7642 152.527 32.7642ZM186.611 29.5761C184.526 31.7015 181.889 32.7642 178.701 32.7642C175.512 32.7642 172.886 31.7116 170.821 29.6062C168.755 27.5008 167.723 24.9242 167.723 21.8764C167.723 18.8687 168.765 16.3022 170.851 14.1768C172.936 12.0513 175.573 10.9886 178.761 10.9886C181.949 10.9886 184.576 12.0413 186.641 14.1467C188.706 16.2521 189.739 18.8286 189.739 21.8764C189.739 24.8841 188.696 27.4507 186.611 29.5761ZM173.618 27.2C174.981 28.6437 176.696 29.3656 178.761 29.3656C180.826 29.3656 182.52 28.6437 183.844 27.2C185.187 25.7563 185.859 23.9818 185.859 21.8764C185.859 19.7911 185.177 18.0266 183.814 16.5829C182.47 15.1192 180.766 14.3873 178.701 14.3873C176.635 14.3873 174.931 15.1091 173.588 16.5528C172.264 17.9965 171.603 19.7711 171.603 21.8764C171.603 23.9618 172.274 25.7363 173.618 27.2ZM195.682 32.4033V19.6507H190.569V16.5228H204.465V19.6507H199.352V32.4033H195.682ZM213.126 32.7642C210.8 32.7642 208.855 31.9923 207.291 30.4483C205.747 28.9044 204.975 26.9093 204.975 24.463C204.975 22.1571 205.707 20.2022 207.171 18.5981C208.635 16.994 210.489 16.1919 212.735 16.1919C215.141 16.1919 217.006 17.014 218.329 18.6582C219.673 20.2824 220.345 22.3075 220.345 24.7337C220.345 25.1749 220.325 25.5157 220.284 25.7563H208.615C208.815 27.0196 209.326 28.0121 210.149 28.7339C210.971 29.4357 211.983 29.7866 213.186 29.7866C214.75 29.7866 216.184 29.155 217.487 27.8918L219.623 29.7866C217.979 31.7717 215.813 32.7642 213.126 32.7642ZM208.585 23.3502H216.735C216.615 22.1271 216.204 21.1245 215.502 20.3425C214.8 19.5605 213.868 19.1695 212.705 19.1695C211.602 19.1695 210.68 19.5605 209.938 20.3425C209.196 21.1045 208.745 22.107 208.585 23.3502ZM222.375 32.5838C221.794 32.5838 221.082 32.5136 220.24 32.3732L220.51 29.3956C220.831 29.4758 221.182 29.5159 221.563 29.5159C221.984 29.5159 222.325 29.4558 222.586 29.3355C222.867 29.2152 223.147 28.9144 223.428 28.4332C223.729 27.9319 223.959 27.2301 224.12 26.3278C224.28 25.4255 224.41 24.1623 224.511 22.5381C224.611 20.8939 224.661 18.8888 224.661 16.5228H236.662V32.4033H233.022V19.6507H228.06C228.06 21.9165 227.97 23.8415 227.789 25.4255C227.609 27.0095 227.368 28.2627 227.067 29.1851C226.787 30.1075 226.385 30.8293 225.864 31.3506C225.363 31.8519 224.852 32.1828 224.33 32.3432C223.809 32.5036 223.157 32.5838 222.375 32.5838ZM239.731 32.4033V16.5228H243.37V22.087H247.01C248.894 22.087 250.418 22.508 251.581 23.3502C252.744 24.1923 253.326 25.4455 253.326 27.1098C253.326 28.754 252.784 30.0473 251.702 30.9897C250.619 31.9321 249.145 32.4033 247.28 32.4033H239.731ZM243.37 29.4558H246.799C247.721 29.4558 248.433 29.2553 248.934 28.8543C249.436 28.4532 249.686 27.8717 249.686 27.1098C249.686 26.408 249.426 25.8666 248.904 25.4857C248.403 25.1047 247.681 24.9142 246.739 24.9142H243.37V29.4558Z" fill="white"/>
</svg>
